<svg xmlns="http://www.w3.org/2000/svg" xmlns:xlink="http://www.w3.org/1999/xlink" width="500" zoomAndPan="magnify" viewBox="0 0 375 374.999991" height="500" preserveAspectRatio="xMidYMid meet" version="1.0"><defs><g/><clipPath id="12b63c0350"><path d="M 22.980469 17.835938 L 352.230469 17.835938 L 352.230469 347.085938 L 22.980469 347.085938 Z M 22.980469 17.835938 " clip-rule="nonzero"/></clipPath></defs><g clip-path="url(#12b63c0350)"><path fill="#d9d9d9" d="M 352.230469 347.085938 L 140.484375 347.085938 C 75.691406 347.085938 22.980469 294.375 22.980469 229.582031 L 22.980469 17.835938 L 234.722656 17.835938 C 299.515625 17.835938 352.230469 70.546875 352.230469 135.339844 Z M 24.289062 19.148438 L 24.289062 229.582031 C 24.289062 293.648438 76.414062 345.773438 140.484375 345.773438 L 350.917969 345.773438 L 350.917969 135.339844 C 350.917969 71.269531 298.792969 19.148438 234.722656 19.148438 Z M 24.289062 19.148438 " fill-opacity="1" fill-rule="nonzero"/></g><g fill="#d9d9d9" fill-opacity="1"><g transform="translate(65.623105, 267.527186)"><g><path d="M 11.0625 -46.15625 C 11.539062 -45.84375 12.582031 -45.285156 14.1875 -44.484375 C 15.789062 -43.679688 17.789062 -42.878906 20.1875 -42.078125 C 22.59375 -41.273438 25.359375 -40.550781 28.484375 -39.90625 C 31.617188 -39.269531 34.867188 -38.953125 38.234375 -38.953125 C 43.203125 -38.953125 47.207031 -39.753906 50.25 -41.359375 C 53.289062 -42.960938 55.613281 -45.566406 57.21875 -49.171875 C 58.820312 -52.773438 59.863281 -57.421875 60.34375 -63.109375 C 60.832031 -68.804688 61.078125 -75.738281 61.078125 -83.90625 L 61.078125 -170.703125 L 107.953125 -170.703125 L 107.953125 -83.90625 C 107.953125 -70.925781 107.226562 -59.101562 105.78125 -48.4375 C 104.34375 -37.78125 101.21875 -28.6875 96.40625 -21.15625 C 91.601562 -13.625 84.59375 -7.773438 75.375 -3.609375 C 66.15625 0.554688 53.773438 2.640625 38.234375 2.640625 C 23.804688 2.640625 11.460938 -0.882812 1.203125 -7.9375 Z M 11.0625 -46.15625 "/></g></g></g><g fill="#515187" fill-opacity="1"><g transform="translate(148.838608, 266.876304)"><g><path d="M 165.65625 -170.703125 L 165.65625 0 L 118.78125 0 L 118.78125 -66.84375 L 61.546875 -66.84375 L 61.546875 0 L 14.671875 0 L 14.671875 -170.703125 L 61.546875 -170.703125 L 61.546875 -107.71875 L 118.78125 -107.71875 L 118.78125 -170.703125 Z M 165.65625 -170.703125 "/></g></g></g></svg>